first trial
nRows=13
nColumns=38

# SIMM Motion File Header:
name Sujet_01_velo_60.mvnx
datacolumns 38
datarows 13
otherdata 1
range 5.6990 5.8990
endheader
time pelvis_tilt  pelvis_list  pelvis_rotation  pelvis_tx  pelvis_ty  pelvis_tz  hip_flexion_r  hip_adduction_r  hip_rotation_r  knee_angle_r  ankle_angle_r  subtalar_angle_r  mtp_angle_r  hip_flexion_l  hip_adduction_l  hip_rotation_l  knee_angle_l  ankle_angle_l  subtalar_angle_l  mtp_angle_l  lumbar_extension  lumbar_bending  lumbar_rotation  arm_flex_r  arm_add_r  arm_rot_r  elbow_flex_r  pro_sup_r  wrist_flex_r  wrist_dev_r  arm_flex_l  arm_add_l  arm_rot_l  elbow_flex_l  pro_sup_l  wrist_flex_l  wrist_dev_l
5.6990	10.5801	0.6087	-12.8638	0.0000	1.2500	-0.0000	38.0192	-10.0916	-7.8080	85.4588	0.4805	-12.4262	0.0000	48.1955	-11.3237	-11.4377	63.0682	-5.3654	16.4686	-0.0000	-10.3111	0.2717	-1.9177	7.9767	-16.1019	3.4003	45.6931	111.8846	-10.4005	12.8797	-5.4507	-15.2459	1.1060	80.5417	118.5367	-2.0469	18.0257	
5.7160	10.3056	0.4610	-13.5675	0.0000	1.2500	-0.0000	40.7669	-9.6344	-7.0467	88.7549	0.9792	-12.4867	0.0000	45.4313	-11.7513	-12.5912	59.4672	-6.3661	16.6126	0.0000	-10.3721	0.4687	-1.8762	10.0444	-17.0726	3.5838	45.7583	111.9141	-10.7663	12.8937	-3.2393	-15.6771	2.0007	79.5907	118.0611	-2.4099	17.8955	
5.7330	9.9987	0.3136	-14.3133	0.0000	1.2500	-0.0000	43.5863	-9.0855	-6.3480	91.8047	1.5138	-12.7320	0.0000	42.6053	-12.1261	-13.8513	55.8461	-7.4607	16.7119	-0.0000	-10.4355	0.6741	-1.8158	12.4112	-18.0047	4.0233	45.5987	112.0218	-11.2223	12.8706	-0.7739	-16.1365	2.9031	78.3201	117.3822	-2.9363	17.6590	
5.7490	9.6736	0.1624	-15.0380	0.0000	1.2500	-0.0000	46.4469	-8.5446	-5.6033	94.5754	2.0067	-13.0260	0.0000	39.8536	-12.4585	-15.0714	52.3442	-8.7163	16.8551	0.0000	-10.5141	0.8792	-1.7385	14.9687	-18.8566	4.7039	45.2341	112.0984	-11.7266	12.7828	1.8982	-16.6613	3.7371	76.5628	116.7168	-3.6102	17.2640	
5.7660	9.3275	0.0010	-15.7319	0.0000	1.2500	-0.0000	49.3889	-8.0336	-4.7303	97.0945	2.4393	-13.3527	0.0000	37.1832	-12.7701	-16.2098	48.9218	-10.2475	17.1137	-0.0000	-10.6097	1.0860	-1.6388	17.7187	-19.6242	5.6619	44.6949	112.0613	-12.2656	12.6159	4.7961	-17.2815	4.3739	74.2436	116.0163	-4.5614	16.5846	
5.7830	8.9629	-0.1645	-16.4048	0.0000	1.2500	-0.0000	52.3768	-7.5214	-3.8089	99.3327	2.8311	-13.7301	-0.0000	34.5856	-13.0550	-17.3001	45.6195	-11.9342	17.4082	0.0000	-10.7204	1.2915	-1.5216	20.6582	-20.2887	6.8591	43.9415	112.0134	-12.8610	12.3795	7.8980	-17.9870	4.9604	71.4606	115.3115	-5.6673	15.7320	
5.7990	8.6012	-0.3169	-17.0216	0.0000	1.2500	-0.0000	55.2715	-7.0359	-2.9550	101.1730	3.1589	-14.0714	0.0000	32.1709	-13.3102	-18.2976	42.6987	-13.4953	17.6068	0.0000	-10.8523	1.4795	-1.4046	23.6608	-20.8062	8.1509	42.8902	112.1180	-13.5257	12.0774	11.1022	-18.7343	5.8437	68.2950	114.9117	-6.5269	15.0182	
5.8160	8.2508	-0.4516	-17.5838	0.0000	1.2500	-0.0000	58.0700	-6.5938	-2.1451	102.5819	3.3923	-14.3242	0.0000	29.9243	-13.5623	-19.1590	40.1855	-14.8651	17.6279	0.0000	-11.0010	1.6473	-1.2899	26.6674	-21.1666	9.4720	41.4870	112.4700	-14.3462	11.6481	14.4236	-19.5050	7.2414	64.7090	114.9238	-6.9642	14.5998	
5.8330	7.9022	-0.5721	-18.0900	0.0000	1.2500	-0.0000	60.7793	-6.1917	-1.3824	103.5953	3.5602	-14.5400	-0.0000	27.8586	-13.8152	-19.9146	38.0517	-16.1175	17.5655	0.0000	-11.1697	1.7974	-1.1757	29.7198	-21.3853	10.8642	39.7891	112.9694	-15.2500	11.1419	17.8670	-20.2602	8.9626	60.7165	115.1565	-7.1449	14.3355	
5.8490	7.5492	-0.6715	-18.5013	0.0000	1.2500	-0.0000	63.2762	-5.8502	-0.8082	104.2003	3.7267	-14.7849	0.0000	26.1287	-14.0412	-20.6204	36.4744	-17.1832	17.5566	-0.0000	-11.3758	1.9215	-1.0738	32.8377	-21.4744	12.3332	37.8804	113.4796	-15.9988	10.7312	21.3130	-20.9222	10.7289	56.4717	115.4637	-7.1709	14.1013	
5.8660	7.1844	-0.7488	-18.7977	0.0000	1.2500	-0.0000	65.5710	-5.6024	-0.4904	104.3837	3.8738	-15.1032	-0.0000	24.7623	-14.2422	-21.2975	35.4770	-18.0549	17.6301	-0.0000	-11.6259	2.0166	-0.9861	36.0624	-21.4371	13.8432	35.7163	114.0212	-16.4818	10.4847	24.7524	-21.4756	12.4444	51.9048	115.8960	-6.9793	13.8764	
5.8830	6.8145	-0.8033	-18.9992	0.0000	1.2500	-0.0000	67.6560	-5.4436	-0.3310	104.1583	4.0177	-15.4427	-0.0000	23.7334	-14.4427	-21.9085	35.0324	-18.7357	17.7582	-0.0000	-11.9121	2.0866	-0.9114	39.3393	-21.2886	15.4102	33.3316	114.5458	-16.7987	10.3356	28.1842	-21.9373	14.1983	47.0942	116.3745	-6.6137	13.6986	
5.8990	6.4538	-0.8284	-19.1282	0.0000	1.2500	-0.0000	69.3798	-5.3415	-0.2194	103.5493	4.2752	-15.7291	0.0000	23.1194	-14.6511	-22.4165	35.2429	-19.1666	17.9901	-0.0000	-12.2292	2.1334	-0.8573	42.5470	-21.0564	17.1179	30.9146	114.8144	-17.0128	10.2595	31.4913	-22.3063	15.9695	42.4214	116.6099	-6.3406	13.5168	
